<?xml version="1.0" encoding="UTF-8"?>
<svg xmlns="http://www.w3.org/2000/svg" xmlns:xlink="http://www.w3.org/1999/xlink" width="375pt" height="374.999991pt" viewBox="0 0 375 374.999991" version="1.2">
<defs>
<clipPath id="clip1">
  <path d="M 28.597656 0 L 346.238281 0 L 346.238281 375 L 28.597656 375 Z M 28.597656 0 "/>
</clipPath>
</defs>
<g id="surface1">
<path style=" stroke:none;fill-rule:nonzero;fill:rgb(100%,100%,100%);fill-opacity:1;" d="M 242.015625 135.738281 C 236.777344 135.738281 232.75 139.371094 232.75 144.203125 L 232.75 310.542969 C 232.75 315.390625 236.777344 319.007812 242.015625 319.007812 C 247.238281 319.007812 251.265625 315.390625 251.265625 310.542969 L 251.265625 144.597656 C 250.875 139.765625 246.847656 135.738281 242.015625 135.738281 "/>
<path style=" stroke:none;fill-rule:nonzero;fill:rgb(100%,100%,100%);fill-opacity:1;" d="M 133.65625 135.738281 C 128.414062 135.738281 124.386719 139.371094 124.386719 144.203125 L 124.386719 310.542969 C 124.386719 315.390625 128.414062 319.007812 133.65625 319.007812 C 138.894531 319.007812 142.921875 315.390625 142.921875 310.542969 L 142.921875 144.597656 C 142.921875 139.765625 138.484375 135.738281 133.65625 135.738281 "/>
<g clip-path="url(#clip1)" clip-rule="nonzero">
<path style=" stroke:none;fill-rule:nonzero;fill:rgb(100%,100%,100%);fill-opacity:1;" d="M 63.574219 63.234375 L 311.6875 63.234375 C 320.953125 63.234375 328.207031 70.488281 328.207031 78.953125 C 328.207031 87.402344 320.953125 94.65625 311.6875 94.65625 L 63.574219 94.65625 C 54.308594 94.65625 47.054688 87.402344 47.054688 78.953125 C 47.054688 70.488281 54.308594 63.234375 63.574219 63.234375 Z M 128.824219 34.644531 C 128.824219 29.800781 130.839844 25.773438 134.0625 22.152344 C 137.683594 18.929688 142.121094 17.324219 146.949219 17.324219 L 228.3125 17.324219 C 233.140625 17.324219 237.578125 19.335938 241.199219 22.152344 C 244.832031 25.378906 246.4375 29.800781 246.4375 34.644531 L 246.4375 45.519531 L 129.234375 45.519531 Z M 274.632812 357.273438 L 100.628906 357.273438 C 84.925781 357.273438 72.433594 344.386719 72.433594 327.882812 L 72.433594 112.371094 L 302.023438 112.371094 L 302.023438 328.277344 C 302.433594 344.796875 290.351562 357.273438 274.632812 357.273438 Z M 54.71875 111.570312 L 54.71875 327.882812 C 54.71875 340.769531 59.546875 352.445312 67.996094 361.300781 C 76.460938 369.765625 88.546875 375.007812 100.628906 375.007812 L 274.238281 375.007812 C 286.714844 375.007812 298.40625 370.160156 306.855469 361.300781 C 315.320312 352.851562 320.152344 340.769531 320.152344 327.882812 L 320.152344 111.570312 C 337.066406 107.148438 348.347656 91.839844 345.921875 74.925781 C 343.515625 57.996094 328.617188 45.519531 311.292969 45.519531 L 264.5625 45.519531 L 264.5625 34.644531 C 264.5625 25.378906 260.945312 16.519531 254.097656 10.070312 C 247.238281 3.226562 237.988281 0 228.3125 0 L 146.949219 0 C 137.289062 0 128.023438 3.226562 121.175781 10.070312 C 114.316406 16.519531 110.699219 25.378906 110.699219 34.644531 L 110.699219 45.519531 L 63.574219 45.519531 C 46.25 45.519531 30.941406 57.996094 28.929688 74.925781 C 26.519531 91.429688 37.394531 107.148438 54.71875 111.570312 "/>
</g>
<path style=" stroke:none;fill-rule:nonzero;fill:rgb(100%,100%,100%);fill-opacity:1;" d="M 187.636719 135.738281 C 182.398438 135.738281 178.371094 139.371094 178.371094 144.203125 L 178.371094 310.542969 C 178.371094 315.390625 182.398438 319.007812 187.636719 319.007812 C 192.863281 319.007812 196.890625 315.390625 196.890625 310.542969 L 196.890625 144.597656 C 196.890625 139.765625 192.863281 135.738281 187.636719 135.738281 "/>
</g>
</svg>
